# xmcd CD database file
#
# Track frame offsets:
#	189
#	45465
#	70539
#	111063
#	150051
#	190155
#
# Disc length: 3224 seconds
#
# Revision: 0
# Processed by: cddbd v1.5.1PL2 Copyright (c) Steve Scherf et al.
# Submitted via: CDex 1.51
#
DISCID=390c9606
DTITLE=Trio Engles, Middelhoff and de Wijs - Live at the North Sea Jazz Festival
DYEAR=2000
DGENRE=Jazz
TTITLE0=Cookin'for Jimmy
TTITLE1=Ballad for Mo
TTITLE2=So far, so good
TTITLE3=This I dig of you
TTITLE4=Voice of romance
TTITLE5=Delilah
EXTD=YEAR: 2000
EXTT0=
EXTT1=
EXTT2=
EXTT3=
EXTT4=
EXTT5=
PLAYORDER=
